<mxfile host="app.diagrams.net" modified="2020-06-04T08:47:46.071Z" agent="5.0 (Macintosh; Intel Mac OS X 10_14_6) AppleWebKit/537.36 (KHTML, like Gecko) Chrome/83.0.4103.97 Safari/537.36" etag="wZQfkpFAn-l1LberXYYR" version="13.1.3" type="github">
  <diagram id="JMXbrlBG7XZcy_HgXCFt" name="Page-1">
    <mxGraphModel dx="1774" dy="1130" grid="1" gridSize="10" guides="1" tooltips="1" connect="1" arrows="1" fold="1" page="1" pageScale="1" pageWidth="827" pageHeight="1169" math="0" shadow="0">
      <root>
        <mxCell id="0" />
        <mxCell id="1" parent="0" />
        <mxCell id="BgIOdme0ElzrXmKlEbvz-3" value="" style="edgeStyle=orthogonalEdgeStyle;rounded=0;orthogonalLoop=1;jettySize=auto;html=1;" edge="1" parent="1" source="BgIOdme0ElzrXmKlEbvz-1" target="BgIOdme0ElzrXmKlEbvz-2">
          <mxGeometry relative="1" as="geometry" />
        </mxCell>
        <mxCell id="BgIOdme0ElzrXmKlEbvz-26" value="" style="edgeStyle=orthogonalEdgeStyle;rounded=0;orthogonalLoop=1;jettySize=auto;html=1;" edge="1" parent="1" source="BgIOdme0ElzrXmKlEbvz-1" target="BgIOdme0ElzrXmKlEbvz-25">
          <mxGeometry relative="1" as="geometry" />
        </mxCell>
        <mxCell id="BgIOdme0ElzrXmKlEbvz-1" value="QPS" style="rounded=0;whiteSpace=wrap;html=1;" vertex="1" parent="1">
          <mxGeometry x="354" y="270" width="120" height="60" as="geometry" />
        </mxCell>
        <mxCell id="BgIOdme0ElzrXmKlEbvz-25" value="不扩容" style="rounded=0;whiteSpace=wrap;html=1;" vertex="1" parent="1">
          <mxGeometry x="154" y="270" width="120" height="60" as="geometry" />
        </mxCell>
        <mxCell id="BgIOdme0ElzrXmKlEbvz-5" value="" style="edgeStyle=orthogonalEdgeStyle;rounded=0;orthogonalLoop=1;jettySize=auto;html=1;" edge="1" parent="1" source="BgIOdme0ElzrXmKlEbvz-2" target="BgIOdme0ElzrXmKlEbvz-4">
          <mxGeometry relative="1" as="geometry" />
        </mxCell>
        <mxCell id="BgIOdme0ElzrXmKlEbvz-11" style="edgeStyle=orthogonalEdgeStyle;rounded=0;orthogonalLoop=1;jettySize=auto;html=1;exitX=1;exitY=0.5;exitDx=0;exitDy=0;" edge="1" parent="1" source="BgIOdme0ElzrXmKlEbvz-2" target="BgIOdme0ElzrXmKlEbvz-8">
          <mxGeometry relative="1" as="geometry" />
        </mxCell>
        <mxCell id="BgIOdme0ElzrXmKlEbvz-2" value="RT" style="rounded=0;whiteSpace=wrap;html=1;" vertex="1" parent="1">
          <mxGeometry x="354" y="410" width="120" height="60" as="geometry" />
        </mxCell>
        <mxCell id="BgIOdme0ElzrXmKlEbvz-7" value="" style="edgeStyle=orthogonalEdgeStyle;rounded=0;orthogonalLoop=1;jettySize=auto;html=1;" edge="1" parent="1" source="BgIOdme0ElzrXmKlEbvz-4" target="BgIOdme0ElzrXmKlEbvz-6">
          <mxGeometry relative="1" as="geometry" />
        </mxCell>
        <mxCell id="BgIOdme0ElzrXmKlEbvz-9" value="" style="edgeStyle=orthogonalEdgeStyle;rounded=0;orthogonalLoop=1;jettySize=auto;html=1;" edge="1" parent="1" source="BgIOdme0ElzrXmKlEbvz-4" target="BgIOdme0ElzrXmKlEbvz-8">
          <mxGeometry relative="1" as="geometry" />
        </mxCell>
        <mxCell id="BgIOdme0ElzrXmKlEbvz-4" value="ERROR" style="rounded=0;whiteSpace=wrap;html=1;" vertex="1" parent="1">
          <mxGeometry x="354" y="550" width="120" height="60" as="geometry" />
        </mxCell>
        <mxCell id="BgIOdme0ElzrXmKlEbvz-38" value="" style="edgeStyle=orthogonalEdgeStyle;rounded=0;orthogonalLoop=1;jettySize=auto;html=1;" edge="1" parent="1" source="BgIOdme0ElzrXmKlEbvz-8" target="BgIOdme0ElzrXmKlEbvz-37">
          <mxGeometry relative="1" as="geometry" />
        </mxCell>
        <mxCell id="BgIOdme0ElzrXmKlEbvz-41" style="edgeStyle=orthogonalEdgeStyle;rounded=0;orthogonalLoop=1;jettySize=auto;html=1;exitX=0;exitY=0.5;exitDx=0;exitDy=0;entryX=0.5;entryY=0;entryDx=0;entryDy=0;" edge="1" parent="1" source="BgIOdme0ElzrXmKlEbvz-8" target="BgIOdme0ElzrXmKlEbvz-39">
          <mxGeometry relative="1" as="geometry" />
        </mxCell>
        <mxCell id="BgIOdme0ElzrXmKlEbvz-8" value="CPU" style="rounded=0;whiteSpace=wrap;html=1;" vertex="1" parent="1">
          <mxGeometry x="494" y="680" width="120" height="60" as="geometry" />
        </mxCell>
        <mxCell id="BgIOdme0ElzrXmKlEbvz-37" value="不扩容" style="rounded=0;whiteSpace=wrap;html=1;" vertex="1" parent="1">
          <mxGeometry x="694" y="680" width="120" height="60" as="geometry" />
        </mxCell>
        <mxCell id="BgIOdme0ElzrXmKlEbvz-34" value="" style="edgeStyle=orthogonalEdgeStyle;rounded=0;orthogonalLoop=1;jettySize=auto;html=1;" edge="1" parent="1" source="BgIOdme0ElzrXmKlEbvz-6" target="BgIOdme0ElzrXmKlEbvz-33">
          <mxGeometry relative="1" as="geometry" />
        </mxCell>
        <mxCell id="BgIOdme0ElzrXmKlEbvz-40" value="" style="edgeStyle=orthogonalEdgeStyle;rounded=0;orthogonalLoop=1;jettySize=auto;html=1;" edge="1" parent="1" source="BgIOdme0ElzrXmKlEbvz-6" target="BgIOdme0ElzrXmKlEbvz-39">
          <mxGeometry relative="1" as="geometry" />
        </mxCell>
        <mxCell id="BgIOdme0ElzrXmKlEbvz-6" value="CPU" style="rounded=0;whiteSpace=wrap;html=1;" vertex="1" parent="1">
          <mxGeometry x="214" y="680" width="120" height="60" as="geometry" />
        </mxCell>
        <mxCell id="BgIOdme0ElzrXmKlEbvz-48" value="" style="edgeStyle=orthogonalEdgeStyle;rounded=0;orthogonalLoop=1;jettySize=auto;html=1;" edge="1" parent="1" source="BgIOdme0ElzrXmKlEbvz-39" target="BgIOdme0ElzrXmKlEbvz-47">
          <mxGeometry relative="1" as="geometry" />
        </mxCell>
        <mxCell id="BgIOdme0ElzrXmKlEbvz-52" value="" style="edgeStyle=orthogonalEdgeStyle;rounded=0;orthogonalLoop=1;jettySize=auto;html=1;" edge="1" parent="1" source="BgIOdme0ElzrXmKlEbvz-39" target="BgIOdme0ElzrXmKlEbvz-51">
          <mxGeometry relative="1" as="geometry" />
        </mxCell>
        <mxCell id="BgIOdme0ElzrXmKlEbvz-39" value="CPU" style="rounded=0;whiteSpace=wrap;html=1;" vertex="1" parent="1">
          <mxGeometry x="354" y="820" width="120" height="60" as="geometry" />
        </mxCell>
        <mxCell id="BgIOdme0ElzrXmKlEbvz-51" value="不扩容" style="rounded=0;whiteSpace=wrap;html=1;" vertex="1" parent="1">
          <mxGeometry x="154" y="820" width="120" height="60" as="geometry" />
        </mxCell>
        <mxCell id="BgIOdme0ElzrXmKlEbvz-47" value="扩容" style="rounded=0;whiteSpace=wrap;html=1;" vertex="1" parent="1">
          <mxGeometry x="354" y="960" width="120" height="60" as="geometry" />
        </mxCell>
        <mxCell id="BgIOdme0ElzrXmKlEbvz-33" value="不扩容" style="rounded=0;whiteSpace=wrap;html=1;" vertex="1" parent="1">
          <mxGeometry x="14" y="680" width="120" height="60" as="geometry" />
        </mxCell>
        <mxCell id="BgIOdme0ElzrXmKlEbvz-14" value="突增检查" style="rounded=0;whiteSpace=wrap;html=1;" vertex="1" parent="1">
          <mxGeometry x="354" y="590" width="60" height="20" as="geometry" />
        </mxCell>
        <mxCell id="BgIOdme0ElzrXmKlEbvz-15" value="基线对比" style="rounded=0;whiteSpace=wrap;html=1;" vertex="1" parent="1">
          <mxGeometry x="414" y="590" width="60" height="20" as="geometry" />
        </mxCell>
        <mxCell id="BgIOdme0ElzrXmKlEbvz-16" value="突增检查" style="rounded=0;whiteSpace=wrap;html=1;" vertex="1" parent="1">
          <mxGeometry x="354" y="310" width="60" height="20" as="geometry" />
        </mxCell>
        <mxCell id="BgIOdme0ElzrXmKlEbvz-17" value="基线对比" style="rounded=0;whiteSpace=wrap;html=1;" vertex="1" parent="1">
          <mxGeometry x="414" y="310" width="60" height="20" as="geometry" />
        </mxCell>
        <mxCell id="BgIOdme0ElzrXmKlEbvz-18" value="突增检查" style="rounded=0;whiteSpace=wrap;html=1;" vertex="1" parent="1">
          <mxGeometry x="354" y="450" width="60" height="20" as="geometry" />
        </mxCell>
        <mxCell id="BgIOdme0ElzrXmKlEbvz-19" value="基线对比" style="rounded=0;whiteSpace=wrap;html=1;" vertex="1" parent="1">
          <mxGeometry x="414" y="450" width="60" height="20" as="geometry" />
        </mxCell>
        <mxCell id="BgIOdme0ElzrXmKlEbvz-24" value="T" style="text;html=1;align=center;verticalAlign=middle;resizable=0;points=[];autosize=1;" vertex="1" parent="1">
          <mxGeometry x="414" y="330" width="20" height="20" as="geometry" />
        </mxCell>
        <mxCell id="BgIOdme0ElzrXmKlEbvz-27" value="F" style="text;html=1;align=center;verticalAlign=middle;resizable=0;points=[];autosize=1;" vertex="1" parent="1">
          <mxGeometry x="334" y="280" width="20" height="20" as="geometry" />
        </mxCell>
        <mxCell id="BgIOdme0ElzrXmKlEbvz-28" value="T" style="text;html=1;align=center;verticalAlign=middle;resizable=0;points=[];autosize=1;" vertex="1" parent="1">
          <mxGeometry x="414" y="470" width="20" height="20" as="geometry" />
        </mxCell>
        <mxCell id="BgIOdme0ElzrXmKlEbvz-29" value="F" style="text;html=1;align=center;verticalAlign=middle;resizable=0;points=[];autosize=1;" vertex="1" parent="1">
          <mxGeometry x="474" y="440" width="20" height="20" as="geometry" />
        </mxCell>
        <mxCell id="BgIOdme0ElzrXmKlEbvz-30" value="F" style="text;html=1;align=center;verticalAlign=middle;resizable=0;points=[];autosize=1;" vertex="1" parent="1">
          <mxGeometry x="474" y="581" width="20" height="20" as="geometry" />
        </mxCell>
        <mxCell id="BgIOdme0ElzrXmKlEbvz-32" value="T" style="text;html=1;align=center;verticalAlign=middle;resizable=0;points=[];autosize=1;" vertex="1" parent="1">
          <mxGeometry x="334" y="581" width="20" height="20" as="geometry" />
        </mxCell>
        <mxCell id="BgIOdme0ElzrXmKlEbvz-36" value="F" style="text;html=1;align=center;verticalAlign=middle;resizable=0;points=[];autosize=1;" vertex="1" parent="1">
          <mxGeometry x="194" y="710" width="20" height="20" as="geometry" />
        </mxCell>
        <mxCell id="BgIOdme0ElzrXmKlEbvz-42" value="T" style="text;html=1;align=center;verticalAlign=middle;resizable=0;points=[];autosize=1;" vertex="1" parent="1">
          <mxGeometry x="334" y="710" width="20" height="20" as="geometry" />
        </mxCell>
        <mxCell id="BgIOdme0ElzrXmKlEbvz-43" value="T" style="text;html=1;align=center;verticalAlign=middle;resizable=0;points=[];autosize=1;" vertex="1" parent="1">
          <mxGeometry x="474" y="710" width="20" height="20" as="geometry" />
        </mxCell>
        <mxCell id="BgIOdme0ElzrXmKlEbvz-44" value="F" style="text;html=1;align=center;verticalAlign=middle;resizable=0;points=[];autosize=1;" vertex="1" parent="1">
          <mxGeometry x="614" y="710" width="20" height="20" as="geometry" />
        </mxCell>
        <mxCell id="BgIOdme0ElzrXmKlEbvz-45" value="突增检查" style="rounded=0;whiteSpace=wrap;html=1;" vertex="1" parent="1">
          <mxGeometry x="354" y="860" width="60" height="20" as="geometry" />
        </mxCell>
        <mxCell id="BgIOdme0ElzrXmKlEbvz-46" value="基线对比" style="rounded=0;whiteSpace=wrap;html=1;" vertex="1" parent="1">
          <mxGeometry x="414" y="860" width="60" height="20" as="geometry" />
        </mxCell>
        <mxCell id="BgIOdme0ElzrXmKlEbvz-53" value="T" style="text;html=1;align=center;verticalAlign=middle;resizable=0;points=[];autosize=1;" vertex="1" parent="1">
          <mxGeometry x="414" y="880" width="20" height="20" as="geometry" />
        </mxCell>
        <mxCell id="BgIOdme0ElzrXmKlEbvz-54" value="F" style="text;html=1;align=center;verticalAlign=middle;resizable=0;points=[];autosize=1;" vertex="1" parent="1">
          <mxGeometry x="334" y="850" width="20" height="20" as="geometry" />
        </mxCell>
        <mxCell id="BgIOdme0ElzrXmKlEbvz-55" value="CPU&amp;gt;40" style="text;html=1;align=center;verticalAlign=middle;resizable=0;points=[];autosize=1;" vertex="1" parent="1">
          <mxGeometry x="244" y="720" width="60" height="20" as="geometry" />
        </mxCell>
        <mxCell id="BgIOdme0ElzrXmKlEbvz-56" value="CPU&amp;gt;80" style="text;html=1;align=center;verticalAlign=middle;resizable=0;points=[];autosize=1;" vertex="1" parent="1">
          <mxGeometry x="524" y="720" width="60" height="20" as="geometry" />
        </mxCell>
      </root>
    </mxGraphModel>
  </diagram>
</mxfile>
